<svg xmlns="http://www.w3.org/2000/svg" xmlns:xlink="http://www.w3.org/1999/xlink" width="500" zoomAndPan="magnify" viewBox="0 0 375 374.999991" height="500" preserveAspectRatio="xMidYMid meet" version="1.0"><defs><g/><clipPath id="id1"><path d="M 110.902344 103.777344 L 263.902344 103.777344 L 263.902344 256.777344 L 110.902344 256.777344 Z M 110.902344 103.777344 " clip-rule="nonzero"/></clipPath></defs><g clip-path="url(#id1)"><path fill="#2b2828" d="M 155.066406 254.554688 C 148.523438 254.554688 143.78125 253.878906 140.894531 252.433594 C 138.007812 250.984375 136.515625 248.503906 136.515625 244.933594 C 136.507812 244.589844 136.523438 244.246094 136.566406 243.902344 L 133.371094 242.816406 C 131.773438 246.488281 130.023438 249.175781 128.167969 250.933594 C 126.3125 252.691406 122.136719 254.554688 117.757812 254.554688 L 110.902344 254.554688 L 110.902344 256.722656 L 162.746094 256.722656 L 162.746094 254.554688 Z M 261.789062 254.554688 C 258.492188 254.554688 255.863281 253.671875 253.90625 251.914062 C 251.894531 250.105469 249.988281 246.847656 248.132812 242.144531 L 196.242188 103.828125 L 182.585938 103.828125 L 174.90625 125.699219 L 176.863281 126.371094 C 177.6875 123.890625 178.566406 121.410156 179.390625 118.824219 C 180.832031 124.511719 182.6875 130.765625 184.957031 137.539062 C 187.222656 144.316406 189.59375 151.089844 192.015625 157.808594 L 206.960938 198.917969 L 158.3125 198.917969 L 157.589844 201.035156 L 207.785156 201.035156 L 220.617188 236.609375 C 221.242188 238.386719 221.742188 240.195312 222.109375 242.039062 C 222.351562 243.425781 222.488281 244.820312 222.523438 246.226562 C 222.523438 249.382812 221.441406 251.554688 219.328125 252.742188 C 217.214844 253.933594 213.710938 254.554688 208.867188 254.554688 L 202.011719 254.554688 L 202.011719 256.722656 L 263.902344 256.722656 L 263.902344 254.554688 Z M 261.789062 254.554688 " fill-opacity="1" fill-rule="nonzero"/></g><g fill="#2b2b2b" fill-opacity="1"><g transform="translate(133.936991, 244.550745)"><g><path d="M 2.832031 -24.886719 C 1.855469 -22.492188 0.984375 -20.28125 0.21875 -18.257812 C 0.1875 -18.167969 0.167969 -18.175781 0.125 -18.246094 C -0.828125 -19.652344 -1.914062 -21.292969 -3.136719 -23.191406 C -4.820312 -25.800781 -6.21875 -27.945312 -6.675781 -28.308594 C -7.167969 -28.695312 -7.636719 -28.585938 -7.824219 -28.023438 C -8.554688 -25.84375 -5.953125 -16.0625 -3.234375 -8.015625 C -3.214844 -7.945312 -3.210938 -7.898438 -3.234375 -7.792969 C -3.921875 -5.265625 -4.371094 -3.058594 -4.585938 -1.144531 C -4.609375 -0.972656 -4.503906 -0.792969 -4.332031 -0.734375 C -4.132812 -0.667969 -3.921875 -0.777344 -3.851562 -0.984375 L -3.839844 -1.050781 C -3.660156 -2.589844 -3.332031 -4.371094 -2.785156 -6.511719 C -2.761719 -6.601562 -2.75 -6.609375 -2.714844 -6.511719 C -1.859375 -4.054688 -1.015625 -1.816406 -0.261719 -0.109375 C -0.21875 -0.0078125 -0.132812 0.0664062 -0.0351562 0.101562 C 0.167969 0.167969 0.378906 0.0585938 0.445312 -0.140625 C 0.476562 -0.230469 0.472656 -0.320312 0.4375 -0.410156 C -0.398438 -2.335938 -1.394531 -4.945312 -2.375 -7.828125 C -2.398438 -7.894531 -2.40625 -7.941406 -2.382812 -8.042969 C -1.695312 -10.535156 -0.792969 -13.304688 0.339844 -16.394531 C 0.367188 -16.472656 0.390625 -16.476562 0.453125 -16.398438 C 3.308594 -12.265625 4.769531 -10.691406 5.679688 -10.84375 C 5.808594 -10.867188 5.929688 -10.96875 5.976562 -11.097656 C 6.042969 -11.300781 5.933594 -11.511719 5.734375 -11.578125 C 5.675781 -11.597656 5.613281 -11.609375 5.539062 -11.589844 C 5.058594 -11.515625 3.484375 -13.363281 0.773438 -17.292969 C 0.71875 -17.367188 0.714844 -17.414062 0.746094 -17.480469 C 1.550781 -19.648438 2.46875 -21.996094 3.539062 -24.605469 L 3.546875 -24.628906 C 3.613281 -24.828125 3.507812 -25.039062 3.304688 -25.105469 C 3.117188 -25.171875 2.90625 -25.074219 2.832031 -24.886719 Z M -0.207031 -17.355469 C -0.160156 -17.292969 -0.152344 -17.246094 -0.179688 -17.167969 C -1.277344 -14.175781 -2.148438 -11.578125 -2.800781 -9.316406 C -2.832031 -9.226562 -2.839844 -9.207031 -2.878906 -9.320312 C -5.394531 -16.929688 -7.683594 -25.621094 -7.132812 -27.703125 C -6.75 -27.378906 -5.449219 -25.351562 -3.773438 -22.78125 C -2.410156 -20.667969 -1.226562 -18.863281 -0.207031 -17.355469 Z M -0.207031 -17.355469 "/></g></g></g><g fill="#2b2b2b" fill-opacity="1"><g transform="translate(141.039787, 223.285068)"><g><path d="M 0.320312 -14.464844 C 0.296875 -14.40625 0.296875 -14.328125 0.316406 -14.257812 C 0.878906 -11.84375 0.511719 -9.054688 0.0976562 -6.714844 C -0.425781 -7.480469 -1.019531 -8 -1.589844 -8.191406 C -2.148438 -8.375 -2.601562 -8.148438 -2.785156 -7.601562 C -3.058594 -6.78125 -2.796875 -5.167969 -1.980469 -2.683594 C -1.691406 -1.820312 -1.367188 -1 -1.082031 -0.316406 C -0.871094 0.175781 -1.058594 0.144531 -1.3125 -0.160156 C -1.816406 -0.75 -2.398438 -1.535156 -3.078125 -2.496094 C -6.042969 -13.921875 -13.304688 -26.464844 -15.632812 -27.242188 C -16.164062 -27.417969 -16.546875 -27.269531 -16.757812 -26.640625 C -17.433594 -24.621094 -8.96875 -9.488281 -3.761719 -2.144531 L -3.78125 -2.1875 C -3.769531 -2.160156 -3.757812 -2.132812 -3.730469 -2.113281 C -2.042969 0.261719 -0.835938 1.609375 -0.207031 1.820312 C 0.0507812 1.90625 0.320312 1.773438 0.40625 1.515625 C 0.46875 1.324219 0.328125 1.011719 0.179688 0.695312 L 0.101562 0.5 C -0.242188 -0.269531 -0.800781 -1.535156 -1.253906 -2.929688 C -2 -5.191406 -2.320312 -6.699219 -2.105469 -7.339844 C -2.054688 -7.488281 -1.960938 -7.511719 -1.828125 -7.46875 C -1.277344 -7.285156 -0.625 -6.578125 -0.117188 -5.609375 L -0.167969 -5.359375 C -0.613281 -3.027344 -0.824219 -1.796875 -0.0429688 -1.535156 C 0.488281 -1.359375 1.011719 -1.664062 1.214844 -2.273438 C 1.496094 -3.113281 1.289062 -4.425781 0.679688 -5.699219 C 1.160156 -8.195312 1.726562 -11.5625 1.050781 -14.421875 C 1.027344 -14.554688 0.917969 -14.667969 0.800781 -14.707031 C 0.597656 -14.773438 0.386719 -14.667969 0.320312 -14.464844 Z M -16.039062 -26.398438 C -15.996094 -26.519531 -15.925781 -26.539062 -15.804688 -26.5 C -13.953125 -25.882812 -7.621094 -15.128906 -4.414062 -4.453125 C -9.460938 -12.074219 -16.539062 -24.898438 -16.039062 -26.398438 Z M 0.25 -2.242188 C 0.109375 -2.289062 0.207031 -3.109375 0.414062 -4.265625 C 0.609375 -3.554688 0.636719 -2.945312 0.496094 -2.511719 C 0.425781 -2.304688 0.308594 -2.21875 0.25 -2.242188 Z M 0.25 -2.242188 "/></g></g></g><g fill="#2b2b2b" fill-opacity="1"><g transform="translate(145.07372, 211.207526)"><g><path d="M 0.367188 -14.640625 C 0.34375 -14.570312 0.335938 -14.484375 0.359375 -14.417969 C 1.40625 -10.734375 1.472656 -6.367188 0.9375 -4.765625 C 0.691406 -4.039062 0.390625 -3.828125 -0.121094 -3.996094 C -0.460938 -4.109375 -1.0625 -4.679688 -1.894531 -5.679688 C -1.773438 -5.707031 -1.675781 -5.796875 -1.632812 -5.925781 C -1.570312 -6.117188 -1.667969 -6.324219 -1.851562 -6.398438 C -2.078125 -6.496094 -2.316406 -6.542969 -2.570312 -6.515625 C -2.847656 -6.886719 -3.15625 -7.289062 -3.46875 -7.71875 C -7.503906 -16.570312 -14.058594 -29.128906 -15.300781 -29.542969 C -15.738281 -29.691406 -16.074219 -29.511719 -16.238281 -29.023438 C -16.804688 -27.332031 -9.238281 -14.414062 -4.238281 -7.550781 L -4.238281 -7.574219 C -3.988281 -7.023438 -3.753906 -6.5 -3.527344 -6.011719 C -3.695312 -5.8125 -3.824219 -5.589844 -3.914062 -5.320312 C -4.605469 -3.25 -2.976562 0.863281 -1.21875 1.449219 C -0.777344 1.597656 -0.40625 1.386719 -0.246094 0.90625 C -0.09375 0.445312 -0.707031 -1.378906 -2.015625 -4.453125 C -2.105469 -4.648438 -2.015625 -4.71875 -1.867188 -4.558594 C -1.203125 -3.816406 -0.691406 -3.386719 -0.363281 -3.277344 C 0.570312 -2.96875 1.28125 -3.40625 1.65625 -4.527344 C 2.230469 -6.246094 2.171875 -10.800781 1.097656 -14.605469 C 1.054688 -14.742188 0.964844 -14.839844 0.847656 -14.878906 C 0.644531 -14.945312 0.433594 -14.839844 0.367188 -14.640625 Z M -15.519531 -28.78125 C -15.507812 -28.824219 -15.484375 -28.824219 -15.453125 -28.816406 C -14.691406 -28.5625 -8.597656 -16.6875 -6.15625 -11.625 C -11.085938 -19.085938 -15.851562 -27.792969 -15.519531 -28.78125 Z M -0.953125 0.625 C -0.96875 0.675781 -0.996094 0.722656 -1.078125 0.695312 C -2.328125 0.277344 -3.75 -3.417969 -3.195312 -5.078125 L -3.160156 -5.179688 C -1.644531 -1.769531 -0.855469 0.335938 -0.953125 0.625 Z M -0.953125 0.625 "/></g></g></g><g fill="#2b2b2b" fill-opacity="1"><g transform="translate(149.164424, 198.960012)"><g><path d="M 0.410156 -14.835938 C 0.382812 -14.757812 0.378906 -14.679688 0.410156 -14.601562 C 1.230469 -11.738281 1.625 -6.925781 1.15625 -5.527344 C 0.917969 -4.808594 0.609375 -4.585938 0.0976562 -4.757812 C -0.761719 -5.046875 -1.539062 -6.371094 -2.066406 -7.292969 C -2.6875 -8.367188 -3.125 -8.582031 -3.339844 -7.941406 C -3.441406 -7.640625 -3.125 -6.855469 -2.425781 -5.011719 C -1.347656 -2.117188 -0.90625 -0.546875 -1.066406 -0.0664062 C -1.082031 -0.015625 -1.132812 0.03125 -1.242188 -0.00390625 C -1.785156 -0.183594 -2.628906 -1.480469 -3.488281 -3.433594 L -3.480469 -3.417969 C -3.503906 -3.515625 -3.597656 -3.601562 -3.707031 -3.640625 C -3.898438 -3.703125 -4.125 -3.589844 -4.1875 -3.398438 C -4.21875 -3.308594 -4.210938 -3.207031 -4.167969 -3.125 C -3.21875 -0.910156 -2.242188 0.460938 -1.425781 0.734375 C -0.933594 0.898438 -0.519531 0.691406 -0.359375 0.214844 C -0.0898438 -0.597656 -1.078125 -3.496094 -1.644531 -5.027344 C -1.714844 -5.21875 -1.632812 -5.257812 -1.492188 -5.089844 C -1.015625 -4.519531 -0.621094 -4.199219 -0.140625 -4.039062 C 0.789062 -3.726562 1.503906 -4.167969 1.878906 -5.285156 C 2.417969 -6.90625 1.941406 -12 1.136719 -14.816406 C 1.097656 -14.941406 1.007812 -15.035156 0.890625 -15.078125 C 0.699219 -15.140625 0.472656 -15.027344 0.410156 -14.835938 Z M 0.410156 -14.835938 "/></g></g></g><g fill="#2b2b2b" fill-opacity="1"><g transform="translate(153.315236, 186.532539)"><g><path d="M -14.910156 -29.613281 C -15.550781 -29.828125 -16.074219 -29.523438 -16.304688 -28.824219 C -17.578125 -25.011719 -5.148438 -0.230469 0.242188 1.570312 C 1.210938 1.894531 1.835938 1.523438 2.203125 0.425781 C 2.800781 -1.367188 1.683594 -7.441406 0.3125 -12.179688 C 0.273438 -12.300781 0.183594 -12.398438 0.0625 -12.441406 C -0.136719 -12.507812 -0.347656 -12.398438 -0.417969 -12.199219 C -0.441406 -12.121094 -0.445312 -12.042969 -0.417969 -11.964844 C 1.117188 -6.675781 1.960938 -1.246094 1.484375 0.183594 C 1.246094 0.894531 1.03125 1.035156 0.484375 0.851562 C -0.367188 0.566406 -1.488281 -0.398438 -2.839844 -2.015625 C -4.933594 -11.285156 -12.238281 -28.722656 -14.910156 -29.613281 Z M -15.585938 -28.582031 C -15.480469 -28.902344 -15.371094 -28.964844 -15.148438 -28.894531 C -13.097656 -28.207031 -6.539062 -13.265625 -3.988281 -3.5 C -9.597656 -11.097656 -16.472656 -25.933594 -15.585938 -28.582031 Z M -15.585938 -28.582031 "/></g></g></g><g fill="#2b2b2b" fill-opacity="1"><g transform="translate(156.604495, 176.684539)"><g><path d="M -14.910156 -29.613281 C -15.550781 -29.828125 -16.074219 -29.523438 -16.304688 -28.824219 C -17.578125 -25.011719 -5.148438 -0.230469 0.242188 1.570312 C 1.210938 1.894531 1.835938 1.523438 2.203125 0.425781 C 2.800781 -1.367188 1.683594 -7.441406 0.3125 -12.179688 C 0.273438 -12.300781 0.183594 -12.398438 0.0625 -12.441406 C -0.136719 -12.507812 -0.347656 -12.398438 -0.417969 -12.199219 C -0.441406 -12.121094 -0.445312 -12.042969 -0.417969 -11.964844 C 1.117188 -6.675781 1.960938 -1.246094 1.484375 0.183594 C 1.246094 0.894531 1.03125 1.035156 0.484375 0.851562 C -0.367188 0.566406 -1.488281 -0.398438 -2.839844 -2.015625 C -4.933594 -11.285156 -12.238281 -28.722656 -14.910156 -29.613281 Z M -15.585938 -28.582031 C -15.480469 -28.902344 -15.371094 -28.964844 -15.148438 -28.894531 C -13.097656 -28.207031 -6.539062 -13.265625 -3.988281 -3.5 C -9.597656 -11.097656 -16.472656 -25.933594 -15.585938 -28.582031 Z M -15.585938 -28.582031 "/></g></g></g><g fill="#2b2b2b" fill-opacity="1"><g transform="translate(159.893754, 166.83654)"><g><path d="M 0.695312 -15.597656 C 0.667969 -15.515625 0.667969 -15.441406 0.695312 -15.363281 C 1.746094 -12.1875 1.914062 -7.699219 1.449219 -6.296875 C 1.207031 -5.578125 0.898438 -5.355469 0.390625 -5.527344 C -0.449219 -5.808594 -1.253906 -6.867188 -1.835938 -7.648438 C -2.1875 -8.125 -2.421875 -8.421875 -2.652344 -8.5 C -2.890625 -8.582031 -3.136719 -8.449219 -3.214844 -8.210938 C -3.289062 -7.992188 -3.191406 -7.582031 -2.75 -6.175781 C -3.28125 -6.054688 -3.582031 -5.753906 -3.792969 -5.113281 C -4.320312 -3.535156 -3.113281 1.496094 -1.523438 2.027344 C -1.03125 2.191406 -0.589844 1.9375 -0.40625 1.386719 C 0.0273438 0.0859375 -1.109375 -3.472656 -1.851562 -5.84375 C -1.902344 -6.015625 -1.957031 -6.1875 -2.011719 -6.351562 C -2.078125 -6.554688 -1.988281 -6.597656 -1.851562 -6.441406 C -1.28125 -5.753906 -0.609375 -5.0625 0.148438 -4.808594 C 1.078125 -4.496094 1.792969 -4.9375 2.167969 -6.058594 C 2.707031 -7.675781 2.386719 -12.441406 1.421875 -15.574219 C 1.386719 -15.699219 1.296875 -15.796875 1.175781 -15.835938 C 0.988281 -15.898438 0.757812 -15.785156 0.695312 -15.597656 Z M -2.527344 -5.445312 C -1.546875 -2.328125 -0.808594 0.1875 -1.128906 1.144531 C -1.167969 1.265625 -1.242188 1.320312 -1.359375 1.28125 C -2.292969 0.96875 -3.570312 -3.382812 -3.074219 -4.871094 C -2.9375 -5.28125 -2.835938 -5.382812 -2.527344 -5.445312 Z M -2.527344 -5.445312 "/></g></g></g><g fill="#2b2b2b" fill-opacity="1"><g transform="translate(164.308373, 153.619229)"><g><path d="M 1.066406 -16.707031 C 1.046875 -16.648438 1.046875 -16.578125 1.054688 -16.5 C 1.78125 -13.65625 2.4375 -8.625 1.78125 -6.664062 C 1.574219 -6.042969 1.273438 -5.84375 0.804688 -6 C 0.433594 -6.125 0.0273438 -6.472656 -0.441406 -6.863281 C -0.902344 -7.25 -1.402344 -7.683594 -1.882812 -7.84375 C -2.34375 -7.996094 -2.734375 -7.816406 -2.886719 -7.367188 C -3.203125 -6.417969 -2.5625 -4.246094 -0.914062 -0.695312 C -0.425781 0.347656 0.0507812 1.339844 0.429688 2.109375 C 0.523438 2.296875 0.480469 2.394531 0.316406 2.183594 C -0.519531 1.191406 -1.65625 -0.398438 -3.019531 -2.476562 C -5.902344 -14.210938 -13.1875 -26.78125 -15.527344 -27.5625 C -16.058594 -27.738281 -16.464844 -27.519531 -16.652344 -26.960938 C -17.507812 -24.398438 -1.609375 3.054688 1.269531 4.015625 C 1.53125 4.101562 1.796875 3.96875 1.886719 3.707031 C 1.953125 3.5 1.832031 3.234375 1.105469 1.78125 C 1.027344 1.621094 0.949219 1.449219 0.867188 1.265625 C 0.535156 0.589844 0.164062 -0.191406 -0.226562 -1.019531 C -1.570312 -3.914062 -2.285156 -6.007812 -2.203125 -6.917969 C -2.191406 -7.054688 -2.082031 -7.109375 -1.949219 -7.042969 C -1.636719 -6.882812 -1.304688 -6.605469 -0.941406 -6.296875 C -0.472656 -5.90625 0.0546875 -5.453125 0.5625 -5.28125 C 1.441406 -4.988281 2.164062 -5.414062 2.5 -6.421875 C 3.210938 -8.542969 2.535156 -13.78125 1.792969 -16.6875 C 1.757812 -16.808594 1.667969 -16.90625 1.546875 -16.945312 C 1.355469 -17.011719 1.128906 -16.898438 1.066406 -16.707031 Z M -15.929688 -26.71875 C -15.890625 -26.839844 -15.835938 -26.867188 -15.738281 -26.832031 C -13.847656 -26.203125 -7.527344 -15.464844 -4.359375 -4.558594 C -10.425781 -14.152344 -16.34375 -25.480469 -15.929688 -26.71875 Z M -15.929688 -26.71875 "/></g></g></g><g fill="#2b2b2b" fill-opacity="1"><g transform="translate(169.090323, 139.302137)"><g><path d="M -4.625 -5.191406 C -4.585938 -5.300781 -4.601562 -5.425781 -4.667969 -5.527344 C -4.707031 -5.574219 -4.757812 -5.65625 -4.828125 -5.746094 C -4.96875 -5.960938 -5.15625 -6.222656 -5.226562 -6.347656 C -5.28125 -6.421875 -5.351562 -6.476562 -5.429688 -6.503906 C -5.628906 -6.570312 -5.84375 -6.464844 -5.910156 -6.265625 C -5.949219 -6.15625 -5.929688 -6.039062 -5.875 -5.941406 L -5.296875 -5.105469 C -5.253906 -5.035156 -5.183594 -4.976562 -5.105469 -4.949219 C -4.90625 -4.882812 -4.691406 -4.992188 -4.625 -5.191406 Z M 0.488281 -0.261719 C 0.996094 -1.78125 0.378906 -7.320312 -0.34375 -10.253906 C -0.371094 -10.371094 -0.476562 -10.484375 -0.597656 -10.527344 C -0.789062 -10.589844 -1.015625 -10.476562 -1.078125 -10.285156 C -1.097656 -10.226562 -1.097656 -10.160156 -1.089844 -10.078125 C -0.378906 -7.183594 0.222656 -1.859375 -0.234375 -0.5 C -0.382812 -0.0507812 -0.601562 0.0664062 -0.988281 -0.0625 C -1.601562 -0.269531 -2.738281 -1.816406 -3.796875 -3.871094 L -3.804688 -3.882812 C -3.855469 -3.964844 -3.925781 -4.023438 -4.015625 -4.054688 C -4.207031 -4.117188 -4.433594 -4.003906 -4.496094 -3.8125 C -4.527344 -3.714844 -4.519531 -3.609375 -4.472656 -3.515625 C -3.238281 -1.148438 -2.0625 0.378906 -1.230469 0.65625 C -0.429688 0.921875 0.207031 0.582031 0.488281 -0.261719 Z M 0.488281 -0.261719 "/></g></g></g><g fill="#2b2b2b" fill-opacity="1"><g transform="translate(171.730146, 131.39854)"><g/></g></g></svg>